<?xml version="1.0" standalone="no"?><!DOCTYPE svg PUBLIC "-//W3C//DTD SVG 1.1//EN" "http://www.w3.org/Graphics/SVG/1.1/DTD/svg11.dtd"><svg t="1700647273919" class="icon" viewBox="0 0 1024 1024" version="1.1" xmlns="http://www.w3.org/2000/svg" p-id="1503" xmlns:xlink="http://www.w3.org/1999/xlink" width="200" height="200"><path d="M956.024348 834.724425c-24.226209-57.44897-59.117273-108.992354-103.352877-153.238193-44.24584-44.235605-95.789223-78.983378-153.238193-103.352877-0.511749-0.255875-1.023498-0.388929-1.535248-0.644804 79.884057-57.704845 131.826605-151.702946 131.826605-257.747624 0-175.67328-142.337934-318.011215-318.02145-318.011215C336.029905 1.729712 193.691971 144.067647 193.691971 319.740927c0 106.044678 51.932313 200.042779 131.81637 257.880678-0.511749 0.255875-1.023498 0.378694-1.545483 0.634569-57.44897 24.236444-108.992354 58.984218-153.238193 103.352878-44.24584 44.24584-78.993613 95.789223-103.352877 153.238193-23.847515 56.159362-36.549131 115.788384-37.828504 177.085708-0.12282 5.772531 4.493158 10.521564 10.26569 10.521564h76.936381c5.639477 0 10.132635-4.493158 10.255455-10.009815 2.568981-98.992774 42.321662-191.701266 112.595068-261.974672 72.709332-72.709332 169.26618-112.717888 272.107307-112.717889 102.841128 0 199.40821 40.008556 272.107308 112.717889 70.273406 70.273406 110.026087 162.981899 112.584833 261.974672 0.133055 5.639477 4.615978 10.009815 10.26569 10.009815h76.936381c5.762296 0 10.378275-4.749033 10.255455-10.521564-1.279373-61.287089-13.970754-120.916111-37.828504-177.208528zM511.703185 540.304851c-58.861398 0-114.253136-22.957071-155.929994-64.63393s-64.633929-97.068596-64.633929-155.929994c0-58.851163 22.957071-114.253136 64.633929-155.929994S452.841788 99.177003 511.703185 99.177003c58.861398 0 114.253136 22.957071 155.929995 64.63393s64.633929 97.068596 64.633929 155.929994c0 58.861398-22.957071 114.253136-64.633929 155.929994s-97.068596 64.633929-155.929995 64.63393z m0 0" fill="#2C2C2C" p-id="1504"></path></svg>